<svg width="500" height="500" viewBox="0 0 500 500" fill="none" xmlns="http://www.w3.org/2000/svg">
  <!-- Background Shapes -->
  <circle cx="250" cy="250" r="200" fill="#304b8a" opacity="0.1"/>
  <circle cx="350" cy="150" r="80" fill="#4b7bec" opacity="0.2"/>
  
  <!-- Person -->
  <path d="M230 220C250 220 260 200 260 180C260 160 250 140 230 140C210 140 200 160 200 180C200 200 210 220 230 220Z" fill="#fcd34d"/>
  <path d="M200 220C180 220 160 240 160 260V340H300V260C300 240 280 220 260 220H200Z" fill="#fcd34d"/>
  
  <!-- Hair -->
  <path d="M230 160C240 160 250 160 250 180C250 170 240 180 230 180C220 180 210 170 210 180C210 160 220 160 230 160Z" fill="#1e293b"/>
  <path d="M210 170C210 160 220 150 230 150C240 150 250 160 250 170V180C250 180 240 185 230 185C220 185 210 180 210 180V170Z" fill="#1e293b"/>
  
  <!-- Face Features -->
  <circle cx="220" cy="175" r="3" fill="#1e293b"/>
  <circle cx="240" cy="175" r="3" fill="#1e293b"/>
  <path d="M225 185C225 185 230 190 235 185" stroke="#1e293b" stroke-width="2" stroke-linecap="round"/>
  
  <!-- Laptop -->
  <rect x="200" y="250" width="120" height="80" rx="5" fill="#334155"/>
  <rect x="200" y="320" width="120" height="10" rx="5" fill="#475569"/>
  <rect x="210" y="260" width="100" height="50" rx="2" fill="#94a3b8"/>
  <rect x="235" y="315" width="50" height="5" rx="2.5" fill="#cbd5e1"/>
  
  <!-- Code on Screen -->
  <path d="M220 270L230 275L220 280" stroke="#3b82f6" stroke-width="2" stroke-linecap="round" stroke-linejoin="round"/>
  <path d="M235 285H255" stroke="#3b82f6" stroke-width="2" stroke-linecap="round"/>
  <path d="M235 275H260" stroke="#3b82f6" stroke-width="2" stroke-linecap="round"/>
  <path d="M240 280H250" stroke="#3b82f6" stroke-width="2" stroke-linecap="round"/>
  
  <!-- Desk -->
  <rect x="150" y="330" width="200" height="10" rx="2" fill="#475569"/>
  <rect x="160" y="340" width="180" height="30" rx="2" fill="#334155"/>
  
  <!-- Coffee Cup -->
  <rect x="330" y="300" width="20" height="30" rx="3" fill="#f97316"/>
  <path d="M350 305H355C358 305 360 307 360 310V315C360 318 358 320 355 320H350V305Z" fill="#f97316"/>
  <path d="M335 300C335 298 337 295 340 295C343 295 345 298 345 300H335Z" fill="#f97316"/>
  <rect x="335" y="290" width="10" height="5" rx="2" fill="#fdba74"/>
  
  <!-- Plant -->
  <rect x="140" y="280" width="20" height="50" rx="3" fill="#65a30d"/>
  <circle cx="150" cy="280" r="15" fill="#84cc16"/>
  <path d="M145 270C145 270 140 260 150 255C160 260 155 270 155 270" fill="#84cc16"/>
  <path d="M140 265C140 265 130 260 135 250C145 250 145 265 145 265" fill="#84cc16"/>
  <path d="M160 265C160 265 170 260 165 250C155 250 155 265 155 265" fill="#84cc16"/>
</svg> 